<svg xmlns="http://www.w3.org/2000/svg" version="1.1" xmlns:xlink="http://www.w3.org/1999/xlink"  width="512" height="512" x="0" y="0" viewBox="0 0 512.03 512.03" style="enable-background:new 0 0 512 512" xml:space="preserve" class=""><g><g xmlns="http://www.w3.org/2000/svg"><g id="Page-1_17_"><g id="_x30_18---Add-Basket" transform="translate(0 -1)"><path id="Shape_118_" d="m486.415 188.763h-91.759c18.336-59.538-3.39-124.136-53.977-160.494s-118.741-36.358-169.328 0-72.313 100.956-53.977 160.494h-91.759c-14.138 0-25.6 11.462-25.6 25.6v34.133c0 14.138 11.462 25.6 25.6 25.6h1.391l35.089 196.762c4.406 24.418 25.663 42.178 50.475 42.172h286.89c24.817.005 46.076-17.764 50.475-42.189l35.089-196.745h1.391c14.138 0 25.6-11.462 25.6-25.6v-34.133c0-14.138-11.462-25.6-25.6-25.6zm-230.4-170.666c70.692 0 128 57.308 128 128s-57.308 128-128 128-128-57.308-128-128c.08-70.66 57.341-127.921 128-128zm-238.933 230.4v-34.133c0-4.713 3.821-8.533 8.533-8.533h98.355c8.953 19.735 22.194 37.226 38.758 51.2h-137.113c-4.713-.001-8.533-3.822-8.533-8.534zm416.051 219.306c-2.926 16.301-17.111 28.164-33.673 28.16h-286.89c-16.561.001-30.744-11.86-33.673-28.16l-34.56-193.707h143.556c42.564 22.756 93.679 22.756 136.243 0h143.556zm61.815-219.306c0 4.713-3.82 8.533-8.533 8.533h-137.114c16.565-13.974 29.805-31.465 38.758-51.2h98.355c4.713 0 8.533 3.82 8.533 8.533v34.134z" fill="#000000"  style="" class=""></path><circle id="Oval_8_" cx="59.748" cy="231.43" r="8.533" fill="#000000"  style="" class=""></circle><circle id="Oval_7_" cx="110.948" cy="231.43" r="8.533" fill="#000000"  style="" class=""></circle><circle id="Oval_6_" cx="401.082" cy="231.43" r="8.533" fill="#000000"  style="" class=""></circle><circle id="Oval_5_" cx="452.282" cy="231.43" r="8.533" fill="#000000"  style="" class=""></circle><path id="Shape_117_" d="m256.015 299.697c-14.139 0-25.6 11.462-25.6 25.6v119.467c0 14.138 11.462 25.6 25.6 25.6s25.6-11.462 25.6-25.6v-119.467c0-14.139-11.462-25.6-25.6-25.6zm8.533 145.066c0 4.713-3.821 8.533-8.533 8.533-4.713 0-8.533-3.82-8.533-8.533v-119.466c0-4.713 3.821-8.533 8.533-8.533 4.713 0 8.533 3.821 8.533 8.533z" fill="#000000"  style="" class=""></path><path id="Shape_116_" d="m358.415 470.363c14.138 0 25.6-11.462 25.6-25.6v-119.466c0-14.138-11.462-25.6-25.6-25.6s-25.6 11.462-25.6 25.6v119.467c0 14.138 11.461 25.599 25.6 25.599zm-8.533-145.066c0-4.713 3.82-8.533 8.533-8.533s8.533 3.821 8.533 8.533v119.467c0 4.713-3.82 8.533-8.533 8.533s-8.533-3.82-8.533-8.533z" fill="#000000"  style="" class=""></path><path id="Shape_115_" d="m153.615 299.697c-14.138 0-25.6 11.462-25.6 25.6v119.467c0 14.138 11.462 25.6 25.6 25.6 14.139 0 25.6-11.462 25.6-25.6v-119.467c0-14.139-11.462-25.6-25.6-25.6zm8.533 145.066c0 4.713-3.821 8.533-8.533 8.533-4.713 0-8.533-3.82-8.533-8.533v-119.466c0-4.713 3.821-8.533 8.533-8.533 4.713 0 8.533 3.821 8.533 8.533z" fill="#000000"  style="" class=""></path><path id="Shape_114_" d="m187.748 171.697h42.667v42.667c0 14.139 11.462 25.6 25.6 25.6s25.6-11.462 25.6-25.6v-42.667h42.667c14.138 0 25.6-11.462 25.6-25.6 0-14.139-11.462-25.6-25.6-25.6h-42.667v-42.667c0-14.138-11.461-25.6-25.6-25.6s-25.6 11.462-25.6 25.6v42.667h-42.667c-14.139 0-25.6 11.462-25.6 25.6s11.462 25.6 25.6 25.6zm0-34.134h51.2c4.713 0 8.533-3.821 8.533-8.533v-51.2c0-4.713 3.821-8.533 8.533-8.533 4.713 0 8.533 3.821 8.533 8.533v51.2c0 4.713 3.82 8.533 8.533 8.533h51.2c4.713 0 8.533 3.821 8.533 8.533 0 4.713-3.82 8.533-8.533 8.533h-51.2c-4.713 0-8.533 3.821-8.533 8.533v51.2c0 4.713-3.821 8.533-8.533 8.533-4.713 0-8.533-3.821-8.533-8.533v-51.2c0-4.713-3.82-8.533-8.533-8.533h-51.2c-4.713 0-8.533-3.821-8.533-8.533s3.82-8.533 8.533-8.533z" fill="#000000"  style="" class=""></path></g></g></g></g></svg>