<svg xmlns="http://www.w3.org/2000/svg" version="1.1" xmlns:xlink="http://www.w3.org/1999/xlink"  width="512" height="512" x="0" y="0" viewBox="0 0 128 128" style="enable-background:new 0 0 512 512" xml:space="preserve" class=""><g><title xmlns="http://www.w3.org/2000/svg">choice</title><g xmlns="http://www.w3.org/2000/svg" id="choice"><path d="M118.46,82.21a6.51,6.51,0,0,0-3.17-4.82l-5.51-3.25a9.38,9.38,0,0,0-7.1-1A4,4,0,0,0,101.57,71l-.57-.57a4,4,0,0,0-2.24-1.11,9.88,9.88,0,0,0-3.14-6.68L79.1,46.09a5.2,5.2,0,0,0-5.65-1.16,32.09,32.09,0,0,0-7-18.88,1.5,1.5,0,1,0-2.34,1.88,28.69,28.69,0,0,1,6.36,18.13c0,.63,0,1.23-.07,1.87l-.09-.09a5.22,5.22,0,0,0-8.7,2.2,5.27,5.27,0,0,0-5.19.28,15.54,15.54,0,0,0-15-19.82,1.5,1.5,0,0,0,0,3A12.56,12.56,0,0,1,52.84,51.42l-5-5a5.15,5.15,0,0,0-3.7-1.54A6.79,6.79,0,0,0,40,46.77a5.22,5.22,0,0,0,0,7.39l4.16,4.16a12.56,12.56,0,0,1-8.94-23.15,1.5,1.5,0,0,0-1.5-2.6A15.55,15.55,0,0,0,46.58,60.73L56.64,70.79A29,29,0,1,1,59,23a1.5,1.5,0,0,0,1.82-2.39A32,32,0,1,0,53,75.92c-3.59,1.63-7.13,3.72-8.49,5.85a3.54,3.54,0,0,0-.37,3.59,5.47,5.47,0,0,0,6.39,2.88L55,87c.53-.14,2.94.13,8.54,2a10.05,10.05,0,0,1,4.24,2.42,8,8,0,0,0,5.35,2,9.32,9.32,0,0,0,2.1-.25,4,4,0,0,0,1.05,1.92l.57.57a4,4,0,0,0,1.39.9,9.39,9.39,0,0,0,.47,8.61L82,110.72a6.51,6.51,0,0,0,4.82,3.17,6.63,6.63,0,0,0,.84.05A6.5,6.5,0,0,0,92.24,112L116.6,87.67A6.51,6.51,0,0,0,118.46,82.21ZM58.8,72.95l.55.55c-1.26.38-2.78.92-4.36,1.56A32,32,0,0,0,58.8,72.95ZM69.74,89.19a13,13,0,0,0-5.23-3C59.07,84.37,56.57,84,55.32,84a3.85,3.85,0,0,0-1.09.13l-4.5,1.22a2.47,2.47,0,0,1-2.9-1.28c0-.06-.1-.21.16-.64,2-3.3,13.39-7.54,15.29-7.59a1.57,1.57,0,0,0,1.4-.92,1.5,1.5,0,0,0-.32-1.64L42.13,52a2.22,2.22,0,0,1-.66-1.58,2.71,2.71,0,0,1,3.77-2.26c.56.32.86.91,1.38,1.25l5.48,5.48,0,0,3.33,3.33.07.07,0,0L63.17,66a1.5,1.5,0,1,0,2.12-2.12c-2.14-2.14-4.3-4.34-6.48-6.47a6.24,6.24,0,0,1-1.61-1.92,2.17,2.17,0,0,1,.49-2.34,2.24,2.24,0,0,1,3.15,0L67.73,60a1.5,1.5,0,1,0,2.12-2.12L65,53.07A2.22,2.22,0,0,1,68.21,50l5.49,5.49a1.5,1.5,0,0,0,2.12-2.12l-2-2a2.33,2.33,0,0,1,0-3.14,2.26,2.26,0,0,1,3.13,0L93.51,64.74A6.64,6.64,0,0,1,95.77,70L76,89.75A5.63,5.63,0,0,1,69.74,89.19Zm8.67,2.41L97.48,72.54a1,1,0,0,1,1.41,0h0l.56.56a1,1,0,0,1,0,1.41l-1.07,1.07h0l-18,18a1,1,0,0,1-1.41,0L78.41,93A1,1,0,0,1,78.41,91.6Zm36.07-6.06L90.12,109.9a3.55,3.55,0,0,1-5.57-.71l-3.25-5.51a6.39,6.39,0,0,1,1-7.77c6.07-6.07,12.13-12.17,18.22-18.22a6.39,6.39,0,0,1,7.75-1L113.77,80a3.55,3.55,0,0,1,.71,5.57Z" fill="#000000"  style="" class=""></path></g></g></svg>